HIERARCHY
ROOT Hips
{
	OFFSET 0.000000 0.000000 0.000000 
	CHANNELS 6 Xposition Yposition Zposition Yrotation Zrotation Xrotation 
	JOINT Lumbar
	{
		OFFSET 0.000000 0.000000 0.000000 
		CHANNELS 3 Zrotation Xrotation Yrotation
		JOINT Neck
		{
			OFFSET 0.000000 0.445665 0.000000 
			CHANNELS 3 Zrotation Xrotation Yrotation
			End Site
			{
				OFFSET 0.000000 0.227535 0.000000 
			}
		}
		JOINT RightShoulder
		{
			OFFSET 0.019635 0.377685 0.194865 
			CHANNELS 3 Zrotation Xrotation Yrotation
			JOINT RightElbow
			{
				OFFSET 0.000000 -0.243375 0.000000 
				CHANNELS 2 Zrotation Yrotation
				JOINT RightWrist
				{
					OFFSET 0.000000 -0.264825 0.000000 
					CHANNELS 2 Zrotation Xrotation
					End Site
					{
						OFFSET 0.006600 -0.176220 0.000990 
					}
				}
			}
		}
		JOINT LeftShoulder
		{
			OFFSET 0.019635 0.377685 -0.194865 
			CHANNELS 3 Zrotation Xrotation Yrotation
			JOINT LeftElbow
			{
				OFFSET 0.000000 -0.243375 0.000000 
				CHANNELS 2 Zrotation Yrotation
				JOINT LeftWrist
				{
					OFFSET 0.000000 -0.264825 0.000000 
					CHANNELS 2 Zrotation Xrotation
					End Site
					{
						OFFSET 0.006600 -0.176220 -0.000990 
					}
				}
			}
		}
	}
	JOINT RightHip
	{
		OFFSET 0.052140 -0.069960 0.075570 
		CHANNELS 3 Zrotation Xrotation Yrotation
		JOINT RightKnee
		{
			OFFSET 0.000000 -0.402270 0.000000 
			CHANNELS 1 Zrotation
			JOINT RightAnkle
			{
				OFFSET 0.000000 -0.404085 0.000000 
				CHANNELS 3 Zrotation Xrotation Yrotation
				End Site
				{
					OFFSET 0.204105 -0.089430 0.008415 
				}
			}
		}
	}
	JOINT LeftHip
	{
		OFFSET 0.052140 -0.069960 -0.075570 
		CHANNELS 3 Zrotation Xrotation Yrotation
		JOINT LeftKnee
		{
			OFFSET 0.000000 -0.402270 0.000000 
			CHANNELS 1 Zrotation
			JOINT LeftAnkle
			{
				OFFSET 0.000000 -0.404085 0.000000 
				CHANNELS 3 Zrotation Xrotation Yrotation
				End Site
				{
					OFFSET 0.204105 -0.089430 -0.008415 
				}
			}
		}
	}
}
MOTION
Frames: 33
Frame Time: 0.02
-1.26706 -0.00433 0.04443 -115.20401 -24.88318 -0.82946 37.58366 -0.3663 -7.65408 -2.8767 12.42575 -2.11994 6.06509 -12.48536 -34.4906 78.27661 85.82485 4.85399 -0.84243 -8.36833 13.28756 30.64446 93.02506 -89.99281 12.00299 0.80094 13.90802 9.8614 -8.36536 0.11643 15.60836 -4.04963 -1.4475 23.73505 18.89896 9.28219 -0.56667 -4.58403 -24.76539 -9.63709
-1.26334 -0.0044 0.03646 -113.90711 -25.12177 -0.82455 36.7456 -0.08406 -7.47042 -2.88346 12.14668 -2.11994 5.05338 -12.07554 -32.93757 79.12854 85.75208 4.6021 -0.79105 -8.71184 13.10328 29.15214 93.71418 -89.9946 11.75942 0.75917 14.83053 10.01949 -13.7596 0.16965 14.36569 1.45445 0.70999 26.24383 18.6968 7.98247 -3.04462 -5.37394 -20.1413 -7.41631
-1.25888 -0.0045 0.02788 -112.53666 -25.38232 -0.83568 35.79247 0.25028 -7.26597 -2.99998 11.76448 -2.11994 3.82267 -12.09838 -30.86612 79.85648 85.47479 4.17438 -0.80946 -8.89428 13.09301 27.37068 94.28212 -90.00312 11.52397 0.71468 15.84699 10.15217 -21.63733 0.22223 12.30389 10.29945 4.14942 29.15517 18.42447 6.90168 -6.24755 -6.4465 -14.68444 -4.76272
-1.25479 -0.00458 0.01963 -111.19927 -25.63325 -0.83953 34.91613 0.55632 -7.07023 -3.08662 11.40651 -2.11994 2.69787 -11.90884 -29.04678 80.64359 85.30141 3.83649 -0.79249 -9.14518 13.0144 25.72432 94.90298 -90.01347 11.28572 0.67026 16.83863 10.28645 -27.95454 0.22989 10.59898 17.09505 6.78156 31.83612 18.18386 5.72661 -9.0995 -7.35639 -9.75539 -2.37899
-1.25052 -0.00467 0.01108 -109.86013 -25.89155 -0.84259 33.92995 0.8844 -6.87939 -3.091 11.1384 -2.11994 1.54912 -11.76836 -27.15678 81.44431 85.0934 3.46371 -0.78601 -9.41969 12.89223 24.05023 95.54337 -90.0024 11.03928 0.63026 17.77391 10.46114 -35.94799 0.42196 8.94916 25.93463 10.27304 34.74043 17.9403 4.51323 -12.05123 -8.40985 -4.18041 0.32001
-1.24646 -0.00476 0.00305 -108.50836 -26.13659 -0.85155 33.14782 1.17747 -6.67292 -3.29013 10.66381 -2.11994 0.3972 -11.63436 -25.29249 82.17927 84.90465 3.11954 -0.77595 -9.60562 12.90009 22.37152 96.11233 -90.03728 10.81361 0.58073 18.84045 10.54602 -41.12196 0.23428 7.00302 31.41845 12.3277 37.26301 17.6889 3.43804 -14.95946 -9.23274 0.24389 2.46407
-1.24321 -0.00484 -0.00347 -107.14115 -26.33695 -0.87116 32.95579 1.36727 -6.42675 -4.02152 9.60923 -2.11994 -0.70891 -11.42292 -23.61055 82.73921 84.81701 2.89264 -0.7399 -9.58339 13.24056 20.73097 96.48806 -90.20439 10.64192 0.50375 20.26186 10.3915 -37.5828 -1.02856 4.32435 26.41914 9.92246 38.6724 17.41748 2.68973 -17.62065 -9.3371 1.2501 2.95187
-1.24021 -0.00492 -0.00943 -105.76447 -26.52302 -0.89663 32.97418 1.51848 -6.16616 -4.94018 8.35865 -2.11994 -1.80961 -11.20414 -21.97552 83.23715 84.75457 2.70038 -0.69724 -9.4776 13.70257 19.10112 96.79884 -90.41629 10.49144 0.41762 21.80792 10.14704 -31.19534 -2.66886 1.39653 18.02325 6.06998 39.67342 17.14381 2.07575 -20.20026 -9.20185 1.07327 2.86824
-1.23708 -0.00501 -0.01558 -104.39102 -26.71531 -0.92053 32.89824 1.6832 -5.91228 -5.76031 7.21939 -2.11994 -2.916 -10.9839 -20.32873 83.77585 84.68019 2.49439 -0.65922 -9.41146 14.09865 17.4806 97.15459 -90.60345 10.33309 0.33694 23.28267 9.9428 -26.34063 -4.11713 -1.34141 11.46946 3.00863 40.83301 16.88172 1.40293 -22.78718 -9.18476 1.46026 3.05722
-1.23396 -0.00508 -0.02199 -103.0174 -26.90715 -0.94005 32.81305 1.86729 -5.65479 -6.64482 5.97695 -2.11994 -4.0232 -10.79697 -18.62223 84.26 84.6007 2.27413 -0.62143 -9.33268 14.54706 15.78905 97.44191 -90.80985 10.1686 0.2508 24.81788 9.74148 -20.57096 -5.64837 -4.42934 3.77588 -0.56955 42.12181 16.57264 0.72687 -25.53672 -9.13898 1.76823 3.20791
-1.2309 -0.00518 -0.02774 -101.64544 -27.09938 -0.97026 32.79816 2.00057 -5.40449 -7.43338 4.91127 -2.11994 -5.116 -10.53548 -17.05958 84.84157 84.54079 2.09381 -0.57468 -9.26252 14.91167 14.25285 97.85684 -90.98608 10.02044 0.17379 26.2618 9.5117 -15.99028 -7.10098 -6.83956 -2.40178 -3.43523 43.03825 16.36171 0.08824 -27.90418 -9.09164 1.94629 3.29572
-1.22803 -0.00532 -0.03169 -100.26055 -27.26823 -1.02526 32.93013 2.00776 -5.1543 -7.95264 4.32239 -2.11994 -6.23916 -10.0526 -15.8726 85.73244 84.52536 2.01699 -0.56013 -9.23741 15.02779 13.13814 98.64869 -91.07285 9.92386 0.12517 27.36868 9.23703 -15.45369 -8.20711 -7.28869 -3.49713 -3.9488 43.03215 16.42343 -0.4914 -29.3578 -9.10338 2.07224 3.35801
-1.22521 -0.00548 -0.03502 -98.88304 -27.44284 -1.09137 33.12482 1.96396 -4.91701 -8.36067 3.92992 -2.11994 -7.33148 -9.49769 -14.83391 86.71928 84.52954 1.97894 -0.5289 -9.22506 15.05313 12.18332 99.56998 -91.12621 9.84036 0.0859 28.38962 8.93465 -16.18685 -9.22944 -7.04811 -2.97773 -3.70709 42.66291 16.58388 -1.03543 -30.40414 -9.11939 2.10083 3.373
-1.22231 -0.00564 -0.03869 -97.51386 -27.63323 -1.15445 33.28936 1.94012 -4.68824 -8.79172 3.48667 -2.11994 -8.39504 -8.98288 -13.73567 87.64637 84.52908 1.92388 -0.46515 -9.20644 15.10965 11.1581 100.42711 -91.1924 9.74375 0.04177 29.48435 8.63758 -16.28592 -10.31254 -7.13843 -3.25734 -3.83773 42.45317 16.69919 -1.59117 -31.55282 -9.12905 2.15844 3.402
-1.21965 -0.00576 -0.04206 -96.08958 -27.74624 -1.20915 33.47048 1.92865 -4.39526 -9.34515 2.87335 -2.11994 -9.64985 -8.43021 -12.60289 88.63967 84.51489 1.87054 -0.55909 -9.18455 15.20908 10.11734 101.30515 -91.27242 9.67987 -9e-05 30.43447 8.36861 -16.53235 -11.30705 -7.16559 -3.38 -3.89608 42.25001 16.81674 -2.16711 -33.0455 -9.14966 2.23955 3.44293
-1.2165 -0.00597 -0.04594 -94.78872 -28.02102 -1.28396 33.62625 1.87965 -4.24302 -9.61535 2.66438 -2.11994 -10.48561 -7.94782 -11.58017 89.51826 84.52922 1.81837 -0.33501 -9.17641 15.20098 9.15456 102.17035 -91.31218 9.54845 -0.04434 31.66673 8.03506 -16.80471 -12.46879 -7.15551 -3.39998 -3.9058 41.95567 16.95157 -2.68659 -33.72967 -9.1509 2.26397 3.45519
-1.2121 -0.00634 -0.05127 -93.76841 -28.74929 -1.41029 33.72329 1.74115 -4.4434 -9.12713 3.51566 -2.11994 -10.28699 -7.60684 -10.79865 90.05806 84.65642 1.79547 0.88868 -9.17963 14.8758 8.30117 102.97566 -91.27534 9.24761 -0.0976 33.66949 7.53599 -16.89588 -14.04274 -7.2225 -3.53836 -3.97023 41.46989 17.12319 -3.12782 -32.24814 -9.10457 2.15933 3.40173
-1.20719 -0.0068 -0.05714 -92.88251 -29.63858 -1.55651 33.78801 1.5668 -4.79047 -8.35904 4.76821 -2.11994 -9.64697 -7.35402 -10.1292 90.47754 84.80487 1.76623 2.41022 -9.20098 14.45376 7.53238 103.76197 -91.19506 8.8755 -0.15359 35.96163 6.9722 -16.97306 -15.79625 -7.27226 -3.61071 -4.00366 40.91233 17.30635 -3.5028 -29.97417 -9.03881 2.00621 3.32353
-1.20245 -0.00725 -0.06285 -91.97406 -30.44897 -1.69464 33.84727 1.40765 -5.09295 -7.71838 5.84526 -2.11994 -9.13249 -7.10461 -9.42347 90.95348 84.9172 1.71566 3.71073 -9.23003 14.10202 6.76974 104.55332 -91.11575 8.5213 -0.20817 38.1431 6.43462 -17.03216 -17.51519 -7.32141 -3.69249 -4.04157 40.40819 17.47553 -3.8617 -28.0839 -8.97817 1.87877 3.25822
-1.19796 -0.0076 -0.06823 -90.90523 -31.28422 -1.82981 33.98824 1.2502 -5.30566 -7.06629 6.90594 -2.11994 -8.93063 -6.66169 -8.65422 91.4318 85.13949 1.76616 5.366 -9.19259 13.63238 5.82782 105.36675 -91.11012 8.22446 -0.26291 40.24354 5.90969 -17.23496 -19.04444 -7.38283 -3.80856 -4.09534 39.80283 17.68494 -4.40805 -26.07685 -8.93184 1.73174 3.18387
-1.19285 -0.00816 -0.07439 -90.19971 -32.10524 -1.97487 33.95758 1.08273 -5.73628 -6.38133 8.08614 -2.11994 -7.97723 -6.65307 -8.05056 91.8671 85.14065 1.60729 6.3623 -9.29726 13.39132 5.27302 106.12494 -90.94669 7.79636 -0.31838 42.57019 5.34324 -17.12141 -20.99795 -7.4229 -3.85611 -4.11743 39.39666 17.81214 -4.5565 -24.13394 -8.85275 1.61545 3.12326
-1.18587 -0.00945 -0.08288 -90.4847 -32.85186 -2.14937 33.39798 0.88534 -6.76496 -5.60202 9.56141 -2.11994 -5.02249 -7.7436 -7.80252 92.28152 84.49924 0.84422 5.38384 -9.79405 13.76241 5.80386 106.76177 -90.31075 6.97754 -0.37245 45.5548 4.6798 -16.11557 -24.20133 -7.41676 -3.75096 -4.06944 39.55567 17.70801 -3.55458 -22.53295 -8.67361 1.59748 3.10681
-1.17832 -0.01092 -0.0921 -91.12547 -33.57717 -2.33151 32.67709 0.68166 -8.00176 -4.81295 11.13086 -2.11994 -1.33412 -9.28378 -7.73039 92.64248 83.63959 -0.12442 3.74664 -10.43191 14.37411 6.71422 107.33866 -89.5266 6.03763 -0.42758 48.7364 3.97671 -14.79078 -27.80134 -7.39168 -3.58334 -3.99256 39.92021 17.52062 -2.16649 -21.03223 -8.46468 1.61223 3.10522
-1.17118 -0.01221 -0.1008 -91.59181 -34.31018 -2.50587 32.07237 0.48806 -9.12208 -4.07659 12.61416 -2.11994 1.99714 -10.66927 -7.6256 92.98388 82.89712 -0.98098 2.46554 -11.00303 14.9056 7.42473 107.9242 -88.84152 5.1829 -0.48424 51.76202 3.29061 -13.6193 -31.14209 -7.37299 -3.43844 -3.92598 40.19379 17.37175 -1.00104 -19.50559 -8.27904 1.61182 3.09715
-1.16335 -0.01393 -0.11031 -92.12235 -35.0597 -2.70024 31.29006 0.26171 -10.34008 -3.12796 14.29253 -2.11994 5.4479 -11.84581 -7.32507 93.51063 82.07883 -1.91635 0.95757 -11.58789 15.31549 8.2513 108.58522 -88.02078 4.198 -0.53305 55.08502 2.6062 -12.40914 -34.82953 -7.36215 -3.31316 -3.86932 40.45323 17.22016 0.3621 -17.86441 -8.05228 1.61169 3.08745
-1.15686 -0.01481 -0.1183 -92.59477 -35.76454 -2.85308 30.83411 0.10377 -11.402 -2.62109 15.58432 -2.11994 8.81321 -13.5661 -7.47267 93.63474 81.3671 -2.73653 -0.24095 -12.17492 16.03098 8.92837 109.07806 -87.44824 3.45693 -0.59776 57.82314 1.91019 -11.20843 -37.87808 -7.33136 -3.13451 -3.78624 40.79323 17.05467 1.40894 -16.50063 -7.90344 1.61839 3.08447
-1.15412 -0.0131 -0.12189 -92.88096 -36.3774 -2.90124 31.36663 0.127 -11.98062 -3.35171 15.76079 -2.11994 11.80362 -16.64963 -8.81344 92.70745 80.99636 -3.18686 -0.39995 -12.75422 17.58313 9.07106 109.09419 -87.60166 3.41616 -0.71306 58.97146 1.18919 -10.06913 -39.13962 -7.24604 -2.81584 -3.63351 41.2977 16.86772 1.44704 -15.84641 -7.98523 1.64508 3.1012
-1.15276 -0.01057 -0.12393 -93.08494 -36.9406 -2.90508 32.22373 0.2216 -12.39335 -4.52496 15.54772 -2.11994 14.67265 -20.26694 -10.59871 91.36907 80.74139 -3.51471 -0.22973 -13.32669 19.42432 9.05496 108.94775 -88.01373 3.62674 -0.84393 59.51098 0.45952 -8.95713 -39.73085 -7.14212 -2.44791 -3.45628 41.87969 16.67019 1.1602 -15.48003 -8.14521 1.67621 3.1235
-1.1508 -0.00852 -0.12669 -93.28478 -37.50823 -2.92125 32.90189 0.28934 -12.88365 -5.48805 15.527 -2.11994 17.56879 -23.66141 -12.18082 90.18773 80.43783 -3.89924 -0.22866 -13.88877 21.10113 9.13011 108.89415 -88.29923 3.72318 -0.96195 60.27737 -0.26516 -7.86202 -40.57801 -7.04966 -2.10789 -3.29278 42.42947 16.47975 1.04936 -15.00415 -8.26389 1.69939 3.14014
-1.14869 -0.00601 -0.12938 -93.66946 -38.1507 -2.97048 33.70985 0.33177 -13.37679 -6.49211 15.44444 -2.11994 20.61039 -26.99956 -13.77432 89.12797 80.11022 -4.28549 -0.17204 -14.51346 22.93004 9.13857 108.76046 -88.59978 3.81122 -1.10065 61.25383 -0.99906 -6.63675 -41.64021 -6.94422 -1.74109 -3.11669 42.96663 16.27696 0.83492 -14.43257 -8.40514 1.74814 3.17018
-1.14725 -0.00427 -0.13187 -93.64856 -38.62711 -2.94048 34.32318 0.44589 -13.81599 -7.51177 15.39779 -2.11994 23.30913 -30.56176 -15.44696 87.72087 79.8624 -4.63785 -0.13922 -15.00339 24.50221 9.24253 108.75319 -88.95473 3.98276 -1.20465 61.65465 -1.71106 -5.68739 -42.0958 -6.86115 -1.42069 -2.96211 43.55458 16.09825 0.75094 -14.13839 -8.51925 1.74501 3.17385
-1.14726 -0.00484 -0.13393 -92.49504 -38.64539 -2.70005 34.35179 0.72279 -14.19666 -8.50429 15.53561 -2.11994 25.09702 -34.72738 -17.22558 85.4343 79.81419 -4.90995 -0.29443 -15.13115 25.34 9.65268 109.15721 -89.19236 4.2813 -1.16602 60.53437 -2.39733 -5.54644 -40.98893 -6.84919 -1.2279 -2.86671 44.18495 15.99118 1.13241 -14.44311 -8.53152 1.5912 3.09998
-1.14793 -0.00621 -0.13588 -90.94075 -38.50058 -2.38181 34.16934 1.07178 -14.51889 -9.49044 15.72363 -2.11994 26.53794 -39.07346 -19.06381 82.81872 79.84265 -5.152 -0.47408 -15.12235 25.89972 10.1613 109.69022 -89.50524 4.66204 -1.09799 58.86947 -3.05476 -5.67504 -39.3024 -6.85975 -1.08598 -2.79502 44.87533 15.90891 1.65019 -15.0317 -8.51527 1.38628 3.00006
